<?xml version="1.0" ?><svg data-name="outlines [stroke: 13, offset: 20mm]" id="outlines_stroke:_13_offset:_20mm_" viewBox="0 0 432 432" xmlns="http://www.w3.org/2000/svg"><defs><style>.cls-1{fill:#231f20;}</style></defs><title/><path class="cls-1" d="M230.227,387a6.5,6.5,0,0,1-6.5,6.5H200.883a6.5,6.5,0,0,1,0-13h22.844A6.5,6.5,0,0,1,230.227,387Zm39.188-6.5H246.57a6.5,6.5,0,0,0,0,13h22.844a6.5,6.5,0,0,0,0-13Zm-99.292-36.027a6.5,6.5,0,0,0,6.5-6.5V315.129a6.5,6.5,0,0,0-13,0v22.844A6.5,6.5,0,0,0,170.122,344.473Zm117.64-167.851h22.844a6.5,6.5,0,0,0,0-13H287.762a6.5,6.5,0,0,0,0,13ZM183.683,375.877a19.737,19.737,0,0,1-7.061-15.079,6.5,6.5,0,0,0-6.5-6.48h-.02a6.5,6.5,0,0,0-6.48,6.52,32.716,32.716,0,0,0,11.7,24.993,6.5,6.5,0,1,0,8.363-9.953ZM315.1,380.5H292.258a6.5,6.5,0,0,0,0,13H315.1a6.5,6.5,0,0,0,0-13Zm45.634,0h-22.79a6.5,6.5,0,0,0,0,13h22.844a6.5,6.5,0,1,0-.054-13ZM387,258.391a6.5,6.5,0,0,0-6.5,6.5v22.844a6.5,6.5,0,0,0,13,0V264.891A6.5,6.5,0,0,0,387,258.391Zm0-45.687a6.5,6.5,0,0,0-6.5,6.5v22.844a6.5,6.5,0,0,0,13,0V219.2A6.5,6.5,0,0,0,387,212.7Zm0,91.376a6.5,6.5,0,0,0-6.5,6.5v22.844a6.5,6.5,0,1,0,13,0V310.579A6.5,6.5,0,0,0,387,304.079ZM356.293,176.622a6.5,6.5,0,0,0,0-13H333.449a6.5,6.5,0,0,0,0,13ZM380.5,196.365a6.5,6.5,0,0,0,6.5,6.494h.006a6.5,6.5,0,0,0,6.494-6.506,32.714,32.714,0,0,0-11.646-25.018,6.5,6.5,0,0,0-8.383,9.936A19.74,19.74,0,0,1,380.5,196.365Zm6.5,153.4a6.5,6.5,0,0,0-6.5,6.5v4.468a19.768,19.768,0,0,1-4.637,12.72,6.5,6.5,0,0,0,9.943,8.375,32.79,32.79,0,0,0,7.693-21.095v-4.468A6.5,6.5,0,0,0,387,349.767Zm-66.336-29.1V243.23a6.5,6.5,0,0,0-13,0v55.24l-44.74-44.74a32.538,32.538,0,0,0,5.454-18.117V71.266A32.8,32.8,0,0,0,235.613,38.5H71.265A32.8,32.8,0,0,0,38.5,71.266V235.613a32.8,32.8,0,0,0,32.765,32.765h92.452a6.51,6.51,0,0,0-.094,1.063v22.845a6.5,6.5,0,0,0,13,0V269.44a6.51,6.51,0,0,0-.094-1.062h25.217a6.5,6.5,0,1,0,0-13H71.265A19.787,19.787,0,0,1,51.5,235.613V71.266A19.788,19.788,0,0,1,71.265,51.5H235.613a19.788,19.788,0,0,1,19.765,19.766V235.613a19.667,19.667,0,0,1-1.979,8.592l-95.363-95.363a6.5,6.5,0,1,0-9.193,9.193L298.471,307.664H243.23a6.5,6.5,0,0,0,0,13Z"/></svg>